<?xml version="1.0" encoding="UTF-8" standalone="no"?>
<!-- Created with Inkscape (http://www.inkscape.org/) -->

<svg
   id="svg5"
   version="1.1"
   viewBox="0 0 210 297"
   height="297mm"
   width="210mm"
   sodipodi:docname="drawing.svg"
   inkscape:version="1.2.1 (9c6d41e410, 2022-07-14)"
   xmlns:inkscape="http://www.inkscape.org/namespaces/inkscape"
   xmlns:sodipodi="http://sodipodi.sourceforge.net/DTD/sodipodi-0.dtd"
   xmlns="http://www.w3.org/2000/svg"
   xmlns:svg="http://www.w3.org/2000/svg">
  <sodipodi:namedview
     id="namedview7"
     pagecolor="#505050"
     bordercolor="#eeeeee"
     borderopacity="1"
     inkscape:showpageshadow="0"
     inkscape:pageopacity="0"
     inkscape:pagecheckerboard="0"
     inkscape:deskcolor="#505050"
     inkscape:document-units="mm"
     showgrid="false"
     inkscape:zoom="0.95497112"
     inkscape:cx="734.57719"
     inkscape:cy="371.73899"
     inkscape:window-width="1920"
     inkscape:window-height="991"
     inkscape:window-x="-9"
     inkscape:window-y="-9"
     inkscape:window-maximized="1"
     inkscape:current-layer="layer1" />
  <defs
     id="defs2" />
  <g
     inkscape:label="Layer 1"
     inkscape:groupmode="layer"
     id="layer1">
    <g
       id="panel7942">
      <path
         style="fill:none;stroke:#000000;stroke-width:1"
         d="M 76.05 200.1 L 89.635 200.1 L 89.635 197.1 L 101.685 197.1 L 101.685 200.1 L 115.245 200.1 L 115.245 197.1 L 127.295 197.1 L 127.295 200.1 L 140.855 200.1 L 140.855 197.1 L 152.905 197.1 L 152.905 200.1 L 166.465 200.1 L 166.465 197.1 L 178.515 197.1 L 178.515 200.1 L 192.1 200.1"
         id="path1877" />
      <path
         style="fill:none;stroke:#000000;stroke-width:1"
         d="M 192.1 200.1 L 192.1 211.142 L 189.1 211.142 L 189.1 223.092 L 192.1 223.092 L 192.1 237.158 L 189.1 237.158 L 189.1 249.108 L 192.1 249.108 L 192.1 260.15"
         id="path1879" />
      <path
         style="fill:none;stroke:#000000;stroke-width:1"
         d="M 192.1 260.15 L 178.515 260.15 L 178.515 263.15 L 166.465 263.15 L 166.465 260.15 L 152.905 260.15 L 152.905 263.15 L 140.855 263.15 L 140.855 260.15 L 127.295 260.15 L 127.295 263.15 L 115.245 263.15 L 115.245 260.15 L 101.685 260.15 L 101.685 263.15 L 89.635 263.15 L 89.635 260.15 L 76.05 260.15"
         id="path1881" />
      <path
         style="fill:none;stroke:#000000;stroke-width:1"
         d="M 76.05 260.15 L 76.05 249.108 L 79.05 249.108 L 79.05 237.158 L 76.05 237.158 L 76.05 223.092 L 79.05 223.092 L 79.05 211.142 L 76.05 211.142 L 76.05 200.1"
         id="path1883" />
    </g>
    <g
       id="panel8816">
      <path
         style="fill:none;stroke:#000000;stroke-width:1"
         d="M 8 79.05 L 18.9917 79.05 L 18.9917 76.05 L 31.0417 76.05 L 31.0417 79.05 L 45.0083 79.05 L 45.0083 76.05 L 57.0583 76.05 L 57.0583 79.05 L 68.05 79.05"
         id="path1886" />
      <path
         style="fill:none;stroke:#000000;stroke-width:1"
         d="M 68.05 79.05 L 68.05 89.635 L 71.05 89.635 L 71.05 101.685 L 68.05 101.685 L 68.05 115.245 L 71.05 115.245 L 71.05 127.295 L 68.05 127.295 L 68.05 140.855 L 71.05 140.855 L 71.05 152.905 L 68.05 152.905 L 68.05 166.465 L 71.05 166.465 L 71.05 178.515 L 68.05 178.515 L 68.05 189.1"
         id="path1888" />
      <path
         style="fill:none;stroke:#000000;stroke-width:1"
         d="M 68.05 189.1 L 57.0583 189.1 L 57.0583 192.1 L 45.0083 192.1 L 45.0083 189.1 L 31.0417 189.1 L 31.0417 192.1 L 18.9917 192.1 L 18.9917 189.1 L 8 189.1"
         id="path1890" />
      <path
         style="fill:none;stroke:#000000;stroke-width:1"
         d="M 8 189.1 L 8 178.515 L 5 178.515 L 5 166.465 L 8 166.465 L 8 152.905 L 5 152.905 L 5 140.855 L 8 140.855 L 8 127.295 L 5 127.295 L 5 115.245 L 8 115.245 L 8 101.685 L 5 101.685 L 5 89.635 L 8 89.635 L 8 79.05"
         id="path1892" />
    </g>
    <g
       id="panel1655">
      <path
         style="fill:none;stroke:#000000;stroke-width:1"
         d="M 76.05 76.05 L 89.685 76.05 L 89.685 79.05 L 101.635 79.05 L 101.635 76.05 L 115.295 76.05 L 115.295 79.05 L 127.245 79.05 L 127.245 76.05 L 140.905 76.05 L 140.905 79.05 L 152.855 79.05 L 152.855 76.05 L 166.515 76.05 L 166.515 79.05 L 178.465 79.05 L 178.465 76.05 L 192.1 76.05"
         id="path1895" />
      <path
         style="fill:none;stroke:#000000;stroke-width:1"
         d="M 192.1 76.05 L 192.1 89.685 L 189.1 89.685 L 189.1 101.635 L 192.1 101.635 L 192.1 115.295 L 189.1 115.295 L 189.1 127.245 L 192.1 127.245 L 192.1 140.905 L 189.1 140.905 L 189.1 152.855 L 192.1 152.855 L 192.1 166.515 L 189.1 166.515 L 189.1 178.465 L 192.1 178.465 L 192.1 192.1"
         id="path1897" />
      <path
         style="fill:none;stroke:#000000;stroke-width:1"
         d="M 192.1 192.1 L 178.465 192.1 L 178.465 189.1 L 166.515 189.1 L 166.515 192.1 L 152.855 192.1 L 152.855 189.1 L 140.905 189.1 L 140.905 192.1 L 127.245 192.1 L 127.245 189.1 L 115.295 189.1 L 115.295 192.1 L 101.635 192.1 L 101.635 189.1 L 89.685 189.1 L 89.685 192.1 L 76.05 192.1"
         id="path1899" />
      <path
         style="fill:none;stroke:#000000;stroke-width:1"
         d="M 76.05 192.1 L 76.05 178.465 L 79.05 178.465 L 79.05 166.515 L 76.05 166.515 L 76.05 152.855 L 79.05 152.855 L 79.05 140.905 L 76.05 140.905 L 76.05 127.245 L 79.05 127.245 L 79.05 115.295 L 76.05 115.295 L 76.05 101.635 L 79.05 101.635 L 79.05 89.685 L 76.05 89.685 L 76.05 76.05"
         id="path1901" />
    </g>
    <g
       id="panel5749">
      <path
         style="fill:none;stroke:#000000;stroke-width:1"
         d="M 200.1 79.05 L 211.092 79.05 L 211.092 76.05 L 223.142 76.05 L 223.142 79.05 L 237.108 79.05 L 237.108 76.05 L 249.158 76.05 L 249.158 79.05 L 260.15 79.05"
         id="path1904" />
      <path
         style="fill:none;stroke:#000000;stroke-width:1"
         d="M 260.15 79.05 L 260.15 89.635 L 263.15 89.635 L 263.15 101.685 L 260.15 101.685 L 260.15 115.245 L 263.15 115.245 L 263.15 127.295 L 260.15 127.295 L 260.15 140.855 L 263.15 140.855 L 263.15 152.905 L 260.15 152.905 L 260.15 166.465 L 263.15 166.465 L 263.15 178.515 L 260.15 178.515 L 260.15 189.1"
         id="path1906" />
      <path
         style="fill:none;stroke:#000000;stroke-width:1"
         d="M 260.15 189.1 L 249.158 189.1 L 249.158 192.1 L 237.108 192.1 L 237.108 189.1 L 223.142 189.1 L 223.142 192.1 L 211.092 192.1 L 211.092 189.1 L 200.1 189.1"
         id="path1908" />
      <path
         style="fill:none;stroke:#000000;stroke-width:1"
         d="M 200.1 189.1 L 200.1 178.515 L 197.1 178.515 L 197.1 166.465 L 200.1 166.465 L 200.1 152.905 L 197.1 152.905 L 197.1 140.855 L 200.1 140.855 L 200.1 127.295 L 197.1 127.295 L 197.1 115.245 L 200.1 115.245 L 200.1 101.685 L 197.1 101.685 L 197.1 89.635 L 200.1 89.635 L 200.1 79.05"
         id="path1910" />
    </g>
    <g
       id="panel5640">
      <path
         style="fill:none;stroke:#000000;stroke-width:1"
         d="m 268.15,76.05 h 13.635 v 3 h 11.95 v -6.175 h 13.66 v 6.175 h 11.95 v -6.175 h 13.66 v 6.175 h 11.95 v -6.175 h 13.66 v 6.175 h 11.95 v -3 H 384.2"
         id="path1913"
         sodipodi:nodetypes="cccccccccccccccccc" />
      <path
         style="fill:none;stroke:#000000;stroke-width:1"
         d="M 384.2 76.05 L 384.2 89.685 L 381.2 89.685 L 381.2 101.635 L 384.2 101.635 L 384.2 115.295 L 381.2 115.295 L 381.2 127.245 L 384.2 127.245 L 384.2 140.905 L 381.2 140.905 L 381.2 152.855 L 384.2 152.855 L 384.2 166.515 L 381.2 166.515 L 381.2 178.465 L 384.2 178.465 L 384.2 192.1"
         id="path1915" />
      <path
         style="fill:none;stroke:#000000;stroke-width:1"
         d="m 384.2,192.1 h -13.635 v -3 h -11.95 v 6.175 h -13.66 V 189.1 h -11.95 v 6.175 h -13.66 V 189.1 h -11.95 v 6.175 h -13.66 V 189.1 h -11.95 v 3 H 268.15"
         id="path1917"
         sodipodi:nodetypes="cccccccccccccccccc" />
      <path
         style="fill:none;stroke:#000000;stroke-width:1"
         d="M 268.15 192.1 L 268.15 178.465 L 271.15 178.465 L 271.15 166.515 L 268.15 166.515 L 268.15 152.855 L 271.15 152.855 L 271.15 140.905 L 268.15 140.905 L 268.15 127.245 L 271.15 127.245 L 271.15 115.295 L 268.15 115.295 L 268.15 101.635 L 271.15 101.635 L 271.15 89.685 L 268.15 89.685 L 268.15 76.05"
         id="path1919" />
    </g>
    <g
       id="panel4122">
      <path
         style="fill:none;stroke:#000000;stroke-width:1"
         d="M 76.05 8 L 89.635 8 L 89.635 5 L 101.685 5 L 101.685 8 L 115.245 8 L 115.245 5 L 127.295 5 L 127.295 8 L 140.855 8 L 140.855 5 L 152.905 5 L 152.905 8 L 166.465 8 L 166.465 5 L 178.515 5 L 178.515 8 L 192.1 8"
         id="path1922" />
      <path
         style="fill:none;stroke:#000000;stroke-width:1"
         d="M 192.1 8 L 192.1 19.0417 L 189.1 19.0417 L 189.1 30.9917 L 192.1 30.9917 L 192.1 45.0583 L 189.1 45.0583 L 189.1 57.0083 L 192.1 57.0083 L 192.1 68.05"
         id="path1924" />
      <path
         style="fill:none;stroke:#000000;stroke-width:1"
         d="M 192.1 68.05 L 178.515 68.05 L 178.515 71.05 L 166.465 71.05 L 166.465 68.05 L 152.905 68.05 L 152.905 71.05 L 140.855 71.05 L 140.855 68.05 L 127.295 68.05 L 127.295 71.05 L 115.245 71.05 L 115.245 68.05 L 101.685 68.05 L 101.685 71.05 L 89.635 71.05 L 89.635 68.05 L 76.05 68.05"
         id="path1926" />
      <path
         style="fill:none;stroke:#000000;stroke-width:1"
         d="M 76.05 68.05 L 76.05 57.0083 L 79.05 57.0083 L 79.05 45.0583 L 76.05 45.0583 L 76.05 30.9917 L 79.05 30.9917 L 79.05 19.0417 L 76.05 19.0417 L 76.05 8"
         id="path1928" />
    </g>
    <g
       id="g2936"
       transform="translate(-1.1754617,2.7427441)">
      <g
         id="g2920">
        <path
           style="fill:none;stroke:#1be7ff;stroke-width:0.1;stroke-dasharray:none;stroke-opacity:1"
           id="path2858"
           sodipodi:type="arc"
           sodipodi:cx="303.62289"
           sodipodi:cy="107.7124"
           sodipodi:rx="12.50006"
           sodipodi:ry="12.5"
           sodipodi:start="3.1623207"
           sodipodi:end="3.1372147"
           sodipodi:open="true"
           sodipodi:arc-type="arc"
           d="m 291.12552,107.45332 a 12.50006,12.5 0 0 1 12.67801,-12.239612 12.50006,12.5 0 0 1 12.31901,12.600882 12.50006,12.5 0 0 1 -12.52338,12.39779 12.50006,12.5 0 0 1 -12.47621,-12.44525" />
        <path
           style="fill:none;stroke:#1be7ff;stroke-width:0.1;stroke-dasharray:none;stroke-opacity:1"
           id="path2860"
           sodipodi:type="arc"
           sodipodi:cx="351.81689"
           sodipodi:cy="108.49605"
           sodipodi:rx="12.50006"
           sodipodi:ry="12.5"
           sodipodi:start="3.1623207"
           sodipodi:end="3.1372147"
           sodipodi:open="true"
           sodipodi:arc-type="arc"
           d="m 339.31952,108.23697 a 12.50006,12.5 0 0 1 12.67801,-12.239617 12.50006,12.5 0 0 1 12.31901,12.600877 12.50006,12.5 0 0 1 -12.52338,12.3978 12.50006,12.5 0 0 1 -12.47621,-12.44526" />
      </g>
      <g
         id="g2926"
         transform="translate(2.189972e-8,47.80211)">
        <path
           style="fill:none;stroke:#1be7ff;stroke-width:0.1;stroke-dasharray:none;stroke-opacity:1"
           id="path2922"
           sodipodi:type="arc"
           sodipodi:cx="303.62289"
           sodipodi:cy="107.7124"
           sodipodi:rx="12.50006"
           sodipodi:ry="12.5"
           sodipodi:start="3.1623207"
           sodipodi:end="3.1372147"
           sodipodi:open="true"
           sodipodi:arc-type="arc"
           d="m 291.12552,107.45332 a 12.50006,12.5 0 0 1 12.67801,-12.239612 12.50006,12.5 0 0 1 12.31901,12.600882 12.50006,12.5 0 0 1 -12.52338,12.39779 12.50006,12.5 0 0 1 -12.47621,-12.44525" />
        <path
           style="fill:none;stroke:#1be7ff;stroke-width:0.1;stroke-dasharray:none;stroke-opacity:1"
           id="path2924"
           sodipodi:type="arc"
           sodipodi:cx="351.81689"
           sodipodi:cy="108.49605"
           sodipodi:rx="12.50006"
           sodipodi:ry="12.5"
           sodipodi:start="3.1623207"
           sodipodi:end="3.1372147"
           sodipodi:open="true"
           sodipodi:arc-type="arc"
           d="m 339.31952,108.23697 a 12.50006,12.5 0 0 1 12.67801,-12.239617 12.50006,12.5 0 0 1 12.31901,12.600877 12.50006,12.5 0 0 1 -12.52338,12.3978 12.50006,12.5 0 0 1 -12.47621,-12.44526" />
      </g>
    </g>
    <rect
       style="fill:none;stroke:#1be7ff;stroke-width:0.0920369;stroke-dasharray:none;stroke-opacity:1"
       id="rect2938"
       width="19.907963"
       height="12.907963"
       x="92.857483"
       y="45.447208" />
    <path
       style="fill:none;stroke:#1be7ff;stroke-width:0.0398181;stroke-dasharray:none;stroke-opacity:1"
       id="path2992"
       sodipodi:type="arc"
       sodipodi:cx="216.21524"
       sodipodi:cy="95.677078"
       sodipodi:rx="1.4800977"
       sodipodi:ry="1.4800893"
       sodipodi:start="3.1623207"
       sodipodi:end="3.1372147"
       sodipodi:open="true"
       sodipodi:arc-type="arc"
       d="m 214.73546,95.646401 a 1.4800977,1.4800893 0 0 1 1.50117,-1.449258 1.4800977,1.4800893 0 0 1 1.45866,1.492035 1.4800977,1.4800893 0 0 1 -1.48286,1.467987 1.4800977,1.4800893 0 0 1 -1.47727,-1.473607" />
    <path
       style="fill:none;stroke:#1be7ff;stroke-width:0.0398181;stroke-dasharray:none;stroke-opacity:1"
       id="path2994"
       sodipodi:type="arc"
       sodipodi:cx="95.027908"
       sodipodi:cy="215.57417"
       sodipodi:rx="1.4800977"
       sodipodi:ry="1.4800893"
       sodipodi:start="3.1623207"
       sodipodi:end="3.1372147"
       sodipodi:open="true"
       sodipodi:arc-type="arc"
       d="m 93.548129,215.5435 a 1.4800977,1.4800893 0 0 1 1.501168,-1.44926 1.4800977,1.4800893 0 0 1 1.45866,1.49203 1.4800977,1.4800893 0 0 1 -1.482859,1.46799 1.4800977,1.4800893 0 0 1 -1.477273,-1.47361" />
    <path
       style="fill:none;stroke:#1be7ff;stroke-width:0.0398181;stroke-dasharray:none;stroke-opacity:1"
       id="path2996"
       sodipodi:type="arc"
       sodipodi:cx="172.49124"
       sodipodi:cy="51.513725"
       sodipodi:rx="1.4800977"
       sodipodi:ry="1.4800893"
       sodipodi:start="3.1623207"
       sodipodi:end="3.1372147"
       sodipodi:open="true"
       sodipodi:arc-type="arc"
       d="m 171.01146,51.483048 a 1.4800977,1.4800893 0 0 1 1.50117,-1.449257 1.4800977,1.4800893 0 0 1 1.45866,1.492034 1.4800977,1.4800893 0 0 1 -1.48286,1.467987 1.4800977,1.4800893 0 0 1 -1.47727,-1.473607" />
    <path
       style="fill:none;stroke:#1be7ff;stroke-width:0.0398181;stroke-dasharray:none;stroke-opacity:1"
       id="path2998"
       sodipodi:type="arc"
       sodipodi:cx="51.175243"
       sodipodi:cy="171.2346"
       sodipodi:rx="1.4800977"
       sodipodi:ry="1.4800893"
       sodipodi:start="3.1623207"
       sodipodi:end="3.1372147"
       sodipodi:open="true"
       sodipodi:arc-type="arc"
       d="m 49.695464,171.20393 a 1.4800977,1.4800893 0 0 1 1.501168,-1.44926 1.4800977,1.4800893 0 0 1 1.45866,1.49203 1.4800977,1.4800893 0 0 1 -1.482859,1.46799 1.4800977,1.4800893 0 0 1 -1.477273,-1.47361" />
    <g
       id="g3055"
       transform="translate(-3.0476489,-1.9394129)">
      <g
         id="g3018">
        <path
           style="fill:none;stroke:#1be7ff;stroke-width:0.0398181;stroke-dasharray:none;stroke-opacity:1"
           id="path3000"
           sodipodi:type="arc"
           sodipodi:cx="136.98465"
           sodipodi:cy="130.36574"
           sodipodi:rx="1.4800977"
           sodipodi:ry="1.4800893"
           sodipodi:start="3.1623207"
           sodipodi:end="3.1372147"
           sodipodi:open="true"
           sodipodi:arc-type="arc"
           d="m 135.50487,130.33506 a 1.4800977,1.4800893 0 0 1 1.50117,-1.44926 1.4800977,1.4800893 0 0 1 1.45866,1.49204 1.4800977,1.4800893 0 0 1 -1.48286,1.46798 1.4800977,1.4800893 0 0 1 -1.47727,-1.4736" />
        <path
           style="fill:none;stroke:#1be7ff;stroke-width:0.0398181;stroke-dasharray:none;stroke-opacity:1"
           id="path3002"
           sodipodi:type="arc"
           sodipodi:cx="141.66002"
           sodipodi:cy="130.33112"
           sodipodi:rx="1.4800977"
           sodipodi:ry="1.4800893"
           sodipodi:start="3.1623207"
           sodipodi:end="3.1372147"
           sodipodi:open="true"
           sodipodi:arc-type="arc"
           d="m 140.18024,130.30044 a 1.4800977,1.4800893 0 0 1 1.50117,-1.44926 1.4800977,1.4800893 0 0 1 1.45866,1.49204 1.4800977,1.4800893 0 0 1 -1.48286,1.46798 1.4800977,1.4800893 0 0 1 -1.47727,-1.4736" />
        <path
           style="fill:none;stroke:#1be7ff;stroke-width:0.0398181;stroke-dasharray:none;stroke-opacity:1"
           id="path3006"
           sodipodi:type="arc"
           sodipodi:cx="132.17075"
           sodipodi:cy="130.50427"
           sodipodi:rx="1.4800977"
           sodipodi:ry="1.4800893"
           sodipodi:start="3.1623207"
           sodipodi:end="3.1372147"
           sodipodi:open="true"
           sodipodi:arc-type="arc"
           d="m 130.69097,130.4736 a 1.4800977,1.4800893 0 0 1 1.50116,-1.44926 1.4800977,1.4800893 0 0 1 1.45866,1.49203 1.4800977,1.4800893 0 0 1 -1.48285,1.46799 1.4800977,1.4800893 0 0 1 -1.47728,-1.47361" />
        <path
           style="fill:none;stroke:#1be7ff;stroke-width:0.0398181;stroke-dasharray:none;stroke-opacity:1"
           id="path3008"
           sodipodi:type="arc"
           sodipodi:cx="132.17075"
           sodipodi:cy="130.50427"
           sodipodi:rx="1.4800977"
           sodipodi:ry="1.4800893"
           sodipodi:start="3.1623207"
           sodipodi:end="3.1372147"
           sodipodi:open="true"
           sodipodi:arc-type="arc"
           d="m 130.69097,130.4736 a 1.4800977,1.4800893 0 0 1 1.50116,-1.44926 1.4800977,1.4800893 0 0 1 1.45866,1.49203 1.4800977,1.4800893 0 0 1 -1.48285,1.46799 1.4800977,1.4800893 0 0 1 -1.47728,-1.47361" />
      </g>
      <g
         id="g3028"
         transform="translate(0,4.259782)">
        <path
           style="fill:none;stroke:#1be7ff;stroke-width:0.0398181;stroke-dasharray:none;stroke-opacity:1"
           id="path3020"
           sodipodi:type="arc"
           sodipodi:cx="136.98465"
           sodipodi:cy="130.36574"
           sodipodi:rx="1.4800977"
           sodipodi:ry="1.4800893"
           sodipodi:start="3.1623207"
           sodipodi:end="3.1372147"
           sodipodi:open="true"
           sodipodi:arc-type="arc"
           d="m 135.50487,130.33506 a 1.4800977,1.4800893 0 0 1 1.50117,-1.44926 1.4800977,1.4800893 0 0 1 1.45866,1.49204 1.4800977,1.4800893 0 0 1 -1.48286,1.46798 1.4800977,1.4800893 0 0 1 -1.47727,-1.4736" />
        <path
           style="fill:none;stroke:#1be7ff;stroke-width:0.0398181;stroke-dasharray:none;stroke-opacity:1"
           id="path3022"
           sodipodi:type="arc"
           sodipodi:cx="141.66002"
           sodipodi:cy="130.33112"
           sodipodi:rx="1.4800977"
           sodipodi:ry="1.4800893"
           sodipodi:start="3.1623207"
           sodipodi:end="3.1372147"
           sodipodi:open="true"
           sodipodi:arc-type="arc"
           d="m 140.18024,130.30044 a 1.4800977,1.4800893 0 0 1 1.50117,-1.44926 1.4800977,1.4800893 0 0 1 1.45866,1.49204 1.4800977,1.4800893 0 0 1 -1.48286,1.46798 1.4800977,1.4800893 0 0 1 -1.47727,-1.4736" />
        <path
           style="fill:none;stroke:#1be7ff;stroke-width:0.0398181;stroke-dasharray:none;stroke-opacity:1"
           id="path3024"
           sodipodi:type="arc"
           sodipodi:cx="132.17075"
           sodipodi:cy="130.50427"
           sodipodi:rx="1.4800977"
           sodipodi:ry="1.4800893"
           sodipodi:start="3.1623207"
           sodipodi:end="3.1372147"
           sodipodi:open="true"
           sodipodi:arc-type="arc"
           d="m 130.69097,130.4736 a 1.4800977,1.4800893 0 0 1 1.50116,-1.44926 1.4800977,1.4800893 0 0 1 1.45866,1.49203 1.4800977,1.4800893 0 0 1 -1.48285,1.46799 1.4800977,1.4800893 0 0 1 -1.47728,-1.47361" />
        <path
           style="fill:none;stroke:#1be7ff;stroke-width:0.0398181;stroke-dasharray:none;stroke-opacity:1"
           id="path3026"
           sodipodi:type="arc"
           sodipodi:cx="132.17075"
           sodipodi:cy="130.50427"
           sodipodi:rx="1.4800977"
           sodipodi:ry="1.4800893"
           sodipodi:start="3.1623207"
           sodipodi:end="3.1372147"
           sodipodi:open="true"
           sodipodi:arc-type="arc"
           d="m 130.69097,130.4736 a 1.4800977,1.4800893 0 0 1 1.50116,-1.44926 1.4800977,1.4800893 0 0 1 1.45866,1.49203 1.4800977,1.4800893 0 0 1 -1.48285,1.46799 1.4800977,1.4800893 0 0 1 -1.47728,-1.47361" />
      </g>
      <g
         id="g3038"
         transform="translate(0.03463237,8.5888287)">
        <path
           style="fill:none;stroke:#1be7ff;stroke-width:0.0398181;stroke-dasharray:none;stroke-opacity:1"
           id="path3030"
           sodipodi:type="arc"
           sodipodi:cx="136.98465"
           sodipodi:cy="130.36574"
           sodipodi:rx="1.4800977"
           sodipodi:ry="1.4800893"
           sodipodi:start="3.1623207"
           sodipodi:end="3.1372147"
           sodipodi:open="true"
           sodipodi:arc-type="arc"
           d="m 135.50487,130.33506 a 1.4800977,1.4800893 0 0 1 1.50117,-1.44926 1.4800977,1.4800893 0 0 1 1.45866,1.49204 1.4800977,1.4800893 0 0 1 -1.48286,1.46798 1.4800977,1.4800893 0 0 1 -1.47727,-1.4736" />
        <path
           style="fill:none;stroke:#1be7ff;stroke-width:0.0398181;stroke-dasharray:none;stroke-opacity:1"
           id="path3032"
           sodipodi:type="arc"
           sodipodi:cx="141.66002"
           sodipodi:cy="130.33112"
           sodipodi:rx="1.4800977"
           sodipodi:ry="1.4800893"
           sodipodi:start="3.1623207"
           sodipodi:end="3.1372147"
           sodipodi:open="true"
           sodipodi:arc-type="arc"
           d="m 140.18024,130.30044 a 1.4800977,1.4800893 0 0 1 1.50117,-1.44926 1.4800977,1.4800893 0 0 1 1.45866,1.49204 1.4800977,1.4800893 0 0 1 -1.48286,1.46798 1.4800977,1.4800893 0 0 1 -1.47727,-1.4736" />
        <path
           style="fill:none;stroke:#1be7ff;stroke-width:0.0398181;stroke-dasharray:none;stroke-opacity:1"
           id="path3034"
           sodipodi:type="arc"
           sodipodi:cx="132.17075"
           sodipodi:cy="130.50427"
           sodipodi:rx="1.4800977"
           sodipodi:ry="1.4800893"
           sodipodi:start="3.1623207"
           sodipodi:end="3.1372147"
           sodipodi:open="true"
           sodipodi:arc-type="arc"
           d="m 130.69097,130.4736 a 1.4800977,1.4800893 0 0 1 1.50116,-1.44926 1.4800977,1.4800893 0 0 1 1.45866,1.49203 1.4800977,1.4800893 0 0 1 -1.48285,1.46799 1.4800977,1.4800893 0 0 1 -1.47728,-1.47361" />
        <path
           style="fill:none;stroke:#1be7ff;stroke-width:0.0398181;stroke-dasharray:none;stroke-opacity:1"
           id="path3036"
           sodipodi:type="arc"
           sodipodi:cx="132.17075"
           sodipodi:cy="130.50427"
           sodipodi:rx="1.4800977"
           sodipodi:ry="1.4800893"
           sodipodi:start="3.1623207"
           sodipodi:end="3.1372147"
           sodipodi:open="true"
           sodipodi:arc-type="arc"
           d="m 130.69097,130.4736 a 1.4800977,1.4800893 0 0 1 1.50116,-1.44926 1.4800977,1.4800893 0 0 1 1.45866,1.49203 1.4800977,1.4800893 0 0 1 -1.48285,1.46799 1.4800977,1.4800893 0 0 1 -1.47728,-1.47361" />
      </g>
    </g>
    <g
       aria-label="Breki"
       id="text3111"
       style="font-size:24.6944px;font-family:'Times New Roman';-inkscape-font-specification:'Times New Roman, ';fill:#ffffff;stroke:#280b0b;stroke-width:0.3;fill-opacity:1;stroke-dasharray:none"
       transform="translate(-3.0476489,-1.3852949)">
      <path
         d="m 120.01381,30.167193 q 1.70015,0.361735 2.5442,1.15755 1.1696,1.109319 1.1696,2.713008 0,1.217839 -0.7717,2.339216 -0.7717,1.109319 -2.12217,1.627805 -1.33842,0.506428 -4.09966,0.506428 h -7.717 v -0.446139 h 0.61495 q 1.02491,0 1.47105,-0.651122 0.27733,-0.422023 0.27733,-1.796614 V 25.054681 q 0,-1.519285 -0.34967,-1.917192 -0.47026,-0.530544 -1.39871,-0.530544 h -0.61495 v -0.446139 h 7.06588 q 1.97748,0 3.17121,0.289387 1.80867,0.434081 2.76123,1.5434 0.95257,1.097261 0.95257,2.532141 0,1.229897 -0.74758,2.20658 -0.74759,0.964625 -2.20658,1.434879 z m -6.3183,-0.651121 q 0.44614,0.0844 1.01286,0.132635 0.57878,0.03617 1.26607,0.03617 1.76044,0 2.64066,-0.373792 0.89228,-0.38585 1.36253,-1.169608 0.47026,-0.783758 0.47026,-1.71221 0,-1.434879 -1.16961,-2.447736 -1.16961,-1.012856 -3.41236,-1.012856 -1.20578,0 -2.17041,0.265272 z m 0,7.813462 q 1.39871,0.325561 2.76124,0.325561 2.18247,0 3.32796,-0.976683 1.14549,-0.98874 1.14549,-2.435678 0,-0.952567 -0.51848,-1.832787 -0.51849,-0.880221 -1.6881,-1.386649 -1.16961,-0.506428 -2.89387,-0.506428 -0.74759,0 -1.27813,0.02412 -0.53055,0.02411 -0.85611,0.0844 z"
         id="path3163"
         style="fill:#ffffff;fill-opacity:1;stroke:#280b0b;stroke-width:0.3;stroke-dasharray:none" />
      <path
         d="m 129.08128,27.140682 v 2.48391 q 1.38665,-2.48391 2.84565,-2.48391 0.66318,0 1.09726,0.409966 0.43408,0.397908 0.43408,0.928452 0,0.470254 -0.3135,0.795815 -0.31351,0.325561 -0.74759,0.325561 -0.42202,0 -0.95257,-0.409965 -0.51848,-0.422024 -0.7717,-0.422024 -0.21704,0 -0.47025,0.241156 -0.5426,0.494371 -1.12138,1.627805 v 5.29338 q 0,0.916394 0.2291,1.386648 0.15675,0.325561 0.55466,0.542602 0.39791,0.217041 1.14549,0.217041 V 38.5112 h -5.65511 v -0.434081 q 0.84405,0 1.25401,-0.265272 0.30145,-0.192925 0.42202,-0.614949 0.0603,-0.204982 0.0603,-1.169608 v -4.280523 q 0,-1.92925 -0.0844,-2.290985 -0.0724,-0.373792 -0.28939,-0.542601 -0.20498,-0.168809 -0.51848,-0.168809 -0.3738,0 -0.84405,0.180867 l -0.12058,-0.434082 3.34001,-1.350475 z"
         id="path3165"
         style="fill:#ffffff;fill-opacity:1;stroke:#280b0b;stroke-width:0.3;stroke-dasharray:none" />
      <path
         d="m 135.93012,31.626189 q -0.0121,2.459794 1.19372,3.8585 1.20579,1.398706 2.83359,1.398706 1.0852,0 1.88102,-0.590833 0.80787,-0.60289 1.35047,-2.049828 l 0.3738,0.241156 q -0.25322,1.651921 -1.47106,3.014454 -1.21784,1.350475 -3.05062,1.350475 -1.98954,0 -3.41236,-1.5434 -1.41077,-1.555458 -1.41077,-4.172004 0,-2.833586 1.44694,-4.413159 1.45899,-1.591631 3.65352,-1.591631 1.8569,0 3.05062,1.229897 1.19373,1.217839 1.19373,3.267667 z m 0,-0.699353 h 5.11251 q -0.0603,-1.061088 -0.25321,-1.495169 -0.30145,-0.675238 -0.90434,-1.061088 -0.59083,-0.38585 -1.24195,-0.38585 -1.0008,0 -1.79662,0.783758 -0.78375,0.7717 -0.91639,2.158349 z"
         id="path3167"
         style="fill:#ffffff;fill-opacity:1;stroke:#280b0b;stroke-width:0.3;stroke-dasharray:none" />
      <path
         d="m 148.30144,21.36499 v 10.984668 l 2.80947,-2.556257 q 0.89228,-0.819931 1.03697,-1.036972 0.0965,-0.144693 0.0965,-0.289387 0,-0.241156 -0.20498,-0.409966 -0.19293,-0.180867 -0.65112,-0.204983 v -0.38585 h 4.79901 v 0.38585 q -0.98874,0.02412 -1.65192,0.301446 -0.65113,0.277329 -1.43488,0.98874 l -2.83359,2.616546 2.83359,3.58117 q 1.18166,1.483111 1.59163,1.881019 0.57877,0.566717 1.01285,0.735527 0.30145,0.120578 1.04903,0.120578 V 38.5112 h -5.36572 v -0.434081 q 0.45819,-0.01206 0.61495,-0.132636 0.1688,-0.132636 0.1688,-0.361735 0,-0.277329 -0.48231,-0.892278 l -3.38824,-4.328755 v 3.665575 q 0,1.073146 0.14469,1.410765 0.15675,0.337618 0.43408,0.482312 0.27733,0.144694 1.20578,0.156752 V 38.5112 h -5.61894 v -0.434081 q 0.84405,0 1.26607,-0.204983 0.25322,-0.132636 0.38585,-0.409966 0.18087,-0.397908 0.18087,-1.37459 V 26.031364 q 0,-1.917193 -0.0844,-2.339216 -0.0844,-0.434081 -0.27733,-0.590833 -0.19293,-0.168809 -0.50643,-0.168809 -0.25322,0 -0.75964,0.204983 l -0.20499,-0.422024 3.27973,-1.350475 z"
         id="path3169"
         style="fill:#ffffff;fill-opacity:1;stroke:#280b0b;stroke-width:0.3;stroke-dasharray:none" />
      <path
         d="m 160.19044,21.36499 q 0.50643,0 0.8561,0.361734 0.36174,0.349677 0.36174,0.856105 0,0.506428 -0.36174,0.868163 -0.34967,0.361734 -0.8561,0.361734 -0.50643,0 -0.86816,-0.361734 -0.36174,-0.361735 -0.36174,-0.868163 0,-0.506428 0.34968,-0.856105 0.36173,-0.361734 0.88022,-0.361734 z m 1.0008,5.775692 v 8.874551 q 0,1.036972 0.14469,1.386648 0.15675,0.337619 0.44614,0.506428 0.30145,0.16881 1.0852,0.16881 V 38.5112 h -5.36572 v -0.434081 q 0.80787,0 1.0852,-0.156752 0.27733,-0.156751 0.43408,-0.518486 0.16881,-0.361734 0.16881,-1.386648 v -4.256408 q 0,-1.796614 -0.10852,-2.327158 -0.0844,-0.38585 -0.26527,-0.530544 -0.18087,-0.156751 -0.49437,-0.156751 -0.33762,0 -0.81993,0.180867 l -0.16881,-0.434082 3.32795,-1.350475 z"
         id="path3171"
         style="fill:#ffffff;fill-opacity:1;stroke:#280b0b;stroke-width:0.3;stroke-dasharray:none" />
    </g>
  </g>
</svg>
