<?xml version="1.0" encoding="UTF-8" standalone="no"?>
<!-- Created with Inkscape (http://www.inkscape.org/) -->

<svg
   id="svg5"
   version="1.1"
   viewBox="0 0 380.20001 259.14999"
   height="259.14999mm"
   width="380.20001mm"
   sodipodi:docname="box Breki.svg"
   inkscape:version="1.2.1 (9c6d41e410, 2022-07-14)"
   xmlns:inkscape="http://www.inkscape.org/namespaces/inkscape"
   xmlns:sodipodi="http://sodipodi.sourceforge.net/DTD/sodipodi-0.dtd"
   xmlns="http://www.w3.org/2000/svg"
   xmlns:svg="http://www.w3.org/2000/svg">
  <sodipodi:namedview
     id="namedview7"
     pagecolor="#505050"
     bordercolor="#eeeeee"
     borderopacity="1"
     inkscape:showpageshadow="0"
     inkscape:pageopacity="0"
     inkscape:pagecheckerboard="0"
     inkscape:deskcolor="#505050"
     inkscape:document-units="mm"
     showgrid="false"
     inkscape:zoom="0.95497112"
     inkscape:cx="574.36292"
     inkscape:cy="408.38931"
     inkscape:window-width="1920"
     inkscape:window-height="991"
     inkscape:window-x="-9"
     inkscape:window-y="-9"
     inkscape:window-maximized="1"
     inkscape:current-layer="layer1" />
  <defs
     id="defs2" />
  <g
     inkscape:label="Layer 1"
     inkscape:groupmode="layer"
     id="layer1"
     transform="translate(-4.5,-4.5)">
    <g
       id="panel7942">
      <path
         style="fill:none;stroke:#000000;stroke-width:1"
         d="m 76.05,200.1 h 13.585 v -3 h 12.05 v 3 h 13.56 v -3 h 12.05 v 3 h 13.56 v -3 h 12.05 v 3 h 13.56 v -3 h 12.05 v 3 H 192.1"
         id="path1877" />
      <path
         style="fill:none;stroke:#000000;stroke-width:1"
         d="m 192.1,200.1 v 11.042 h -3 v 11.95 h 3 v 14.066 h -3 v 11.95 h 3 v 11.042"
         id="path1879" />
      <path
         style="fill:none;stroke:#000000;stroke-width:1"
         d="m 192.1,260.15 h -13.585 v 3 h -12.05 v -3 h -13.56 v 3 h -12.05 v -3 h -13.56 v 3 h -12.05 v -3 h -13.56 v 3 h -12.05 v -3 H 76.05"
         id="path1881" />
      <path
         style="fill:none;stroke:#000000;stroke-width:1"
         d="m 76.05,260.15 v -11.042 h 3 v -11.95 h -3 v -14.066 h 3 v -11.95 h -3 V 200.1"
         id="path1883" />
    </g>
    <g
       id="panel8816">
      <path
         style="fill:none;stroke:#000000;stroke-width:1"
         d="m 8,79.05 h 10.9917 v -3 h 12.05 v 3 h 13.9666 v -3 h 12.05 v 3 H 68.05"
         id="path1886" />
      <path
         style="fill:none;stroke:#000000;stroke-width:1"
         d="m 68.05,79.05 v 10.585 h 3 v 12.05 h -3 v 13.56 h 3 v 12.05 h -3 v 13.56 h 3 v 12.05 h -3 v 13.56 h 3 v 12.05 h -3 V 189.1"
         id="path1888" />
      <path
         style="fill:none;stroke:#000000;stroke-width:1"
         d="M 68.05,189.1 H 57.0583 v 3 h -12.05 v -3 H 31.0417 v 3 h -12.05 v -3 H 8"
         id="path1890" />
      <path
         style="fill:none;stroke:#000000;stroke-width:1"
         d="M 8,189.1 V 178.515 H 5 v -12.05 h 3 v -13.56 H 5 v -12.05 h 3 v -13.56 H 5 v -12.05 h 3 v -13.56 H 5 V 89.635 H 8 V 79.05"
         id="path1892" />
    </g>
    <g
       id="panel1655">
      <path
         style="fill:none;stroke:#000000;stroke-width:1"
         d="m 76.05,76.05 h 13.635 v 3 h 11.95 v -3 h 13.66 v 3 h 11.95 v -3 h 13.66 v 3 h 11.95 v -3 h 13.66 v 3 h 11.95 v -3 H 192.1"
         id="path1895" />
      <path
         style="fill:none;stroke:#000000;stroke-width:1"
         d="m 192.1,76.05 v 13.635 h -3 v 11.95 h 3 v 13.66 h -3 v 11.95 h 3 v 13.66 h -3 v 11.95 h 3 v 13.66 h -3 v 11.95 h 3 V 192.1"
         id="path1897" />
      <path
         style="fill:none;stroke:#000000;stroke-width:1"
         d="m 192.1,192.1 h -13.635 v -3 h -11.95 v 3 h -13.66 v -3 h -11.95 v 3 h -13.66 v -3 h -11.95 v 3 h -13.66 v -3 h -11.95 v 3 H 76.05"
         id="path1899" />
      <path
         style="fill:none;stroke:#000000;stroke-width:1"
         d="m 76.05,192.1 v -13.635 h 3 v -11.95 h -3 v -13.66 h 3 v -11.95 h -3 v -13.66 h 3 v -11.95 h -3 v -13.66 h 3 v -11.95 h -3 V 76.05"
         id="path1901" />
    </g>
    <g
       id="panel5749">
      <path
         style="fill:none;stroke:#000000;stroke-width:1"
         d="m 200.1,79.05 h 10.992 v -3 h 12.05 v 3 h 13.966 v -3 h 12.05 v 3 h 10.992"
         id="path1904" />
      <path
         style="fill:none;stroke:#000000;stroke-width:1"
         d="m 260.15,79.05 v 10.585 h 3 v 12.05 h -3 v 13.56 h 3 v 12.05 h -3 v 13.56 h 3 v 12.05 h -3 v 13.56 h 3 v 12.05 h -3 V 189.1"
         id="path1906" />
      <path
         style="fill:none;stroke:#000000;stroke-width:1"
         d="m 260.15,189.1 h -10.992 v 3 h -12.05 v -3 h -13.966 v 3 h -12.05 v -3 H 200.1"
         id="path1908" />
      <path
         style="fill:none;stroke:#000000;stroke-width:1"
         d="m 200.1,189.1 v -10.585 h -3 v -12.05 h 3 v -13.56 h -3 v -12.05 h 3 v -13.56 h -3 v -12.05 h 3 v -13.56 h -3 v -12.05 h 3 V 79.05"
         id="path1910" />
    </g>
    <g
       id="panel5640">
      <path
         style="fill:none;stroke:#000000;stroke-width:1"
         d="m 268.15,76.05 h 13.635 v 3 h 11.95 v -6.175 h 13.66 v 6.175 h 11.95 v -6.175 h 13.66 v 6.175 h 11.95 v -6.175 h 13.66 v 6.175 h 11.95 v -3 H 384.2"
         id="path1913"
         sodipodi:nodetypes="cccccccccccccccccc" />
      <path
         style="fill:none;stroke:#000000;stroke-width:1"
         d="m 384.2,76.05 v 13.635 h -3 v 11.95 h 3 v 13.66 h -3 v 11.95 h 3 v 13.66 h -3 v 11.95 h 3 v 13.66 h -3 v 11.95 h 3 V 192.1"
         id="path1915" />
      <path
         style="fill:none;stroke:#000000;stroke-width:1"
         d="m 384.2,192.1 h -13.635 v -3 h -11.95 v 6.175 h -13.66 V 189.1 h -11.95 v 6.175 h -13.66 V 189.1 h -11.95 v 6.175 h -13.66 V 189.1 h -11.95 v 3 H 268.15"
         id="path1917"
         sodipodi:nodetypes="cccccccccccccccccc" />
      <path
         style="fill:none;stroke:#000000;stroke-width:1"
         d="m 268.15,192.1 v -13.635 h 3 v -11.95 h -3 v -13.66 h 3 v -11.95 h -3 v -13.66 h 3 v -11.95 h -3 v -13.66 h 3 v -11.95 h -3 V 76.05"
         id="path1919" />
    </g>
    <g
       id="panel4122">
      <path
         style="fill:none;stroke:#000000;stroke-width:1"
         d="M 76.05,8 H 89.635 V 5 h 12.05 v 3 h 13.56 V 5 h 12.05 v 3 h 13.56 V 5 h 12.05 v 3 h 13.56 V 5 h 12.05 V 8 H 192.1"
         id="path1922" />
      <path
         style="fill:none;stroke:#000000;stroke-width:1"
         d="m 192.1,8 v 11.0417 h -3 v 11.95 h 3 v 14.0666 h -3 v 11.95 h 3 V 68.05"
         id="path1924" />
      <path
         style="fill:none;stroke:#000000;stroke-width:1"
         d="m 192.1,68.05 h -13.585 v 3 h -12.05 v -3 h -13.56 v 3 h -12.05 v -3 h -13.56 v 3 h -12.05 v -3 h -13.56 v 3 h -12.05 v -3 H 76.05"
         id="path1926" />
      <path
         style="fill:none;stroke:#000000;stroke-width:1"
         d="M 76.05,68.05 V 57.0083 h 3 v -11.95 h -3 V 30.9917 h 3 v -11.95 h -3 V 8"
         id="path1928" />
    </g>
    <g
       id="g2936"
       transform="translate(-1.1754617,2.7427441)">
      <g
         id="g2920">
        <path
           style="fill:none;stroke:#1be7ff;stroke-width:0.1;stroke-dasharray:none;stroke-opacity:1"
           id="path2858"
           sodipodi:type="arc"
           sodipodi:cx="303.62289"
           sodipodi:cy="107.7124"
           sodipodi:rx="12.50006"
           sodipodi:ry="12.5"
           sodipodi:start="3.1623207"
           sodipodi:end="3.1372147"
           sodipodi:open="true"
           sodipodi:arc-type="arc"
           d="m 291.12552,107.45332 a 12.50006,12.5 0 0 1 12.67801,-12.239612 12.50006,12.5 0 0 1 12.31901,12.600882 12.50006,12.5 0 0 1 -12.52338,12.39779 12.50006,12.5 0 0 1 -12.47621,-12.44525" />
        <path
           style="fill:none;stroke:#1be7ff;stroke-width:0.1;stroke-dasharray:none;stroke-opacity:1"
           id="path2860"
           sodipodi:type="arc"
           sodipodi:cx="351.81689"
           sodipodi:cy="108.49605"
           sodipodi:rx="12.50006"
           sodipodi:ry="12.5"
           sodipodi:start="3.1623207"
           sodipodi:end="3.1372147"
           sodipodi:open="true"
           sodipodi:arc-type="arc"
           d="m 339.31952,108.23697 a 12.50006,12.5 0 0 1 12.67801,-12.239617 12.50006,12.5 0 0 1 12.31901,12.600877 12.50006,12.5 0 0 1 -12.52338,12.3978 12.50006,12.5 0 0 1 -12.47621,-12.44526" />
      </g>
      <g
         id="g2926"
         transform="translate(2.189972e-8,47.80211)">
        <path
           style="fill:none;stroke:#1be7ff;stroke-width:0.1;stroke-dasharray:none;stroke-opacity:1"
           id="path2922"
           sodipodi:type="arc"
           sodipodi:cx="303.62289"
           sodipodi:cy="107.7124"
           sodipodi:rx="12.50006"
           sodipodi:ry="12.5"
           sodipodi:start="3.1623207"
           sodipodi:end="3.1372147"
           sodipodi:open="true"
           sodipodi:arc-type="arc"
           d="m 291.12552,107.45332 a 12.50006,12.5 0 0 1 12.67801,-12.239612 12.50006,12.5 0 0 1 12.31901,12.600882 12.50006,12.5 0 0 1 -12.52338,12.39779 12.50006,12.5 0 0 1 -12.47621,-12.44525" />
        <path
           style="fill:none;stroke:#1be7ff;stroke-width:0.1;stroke-dasharray:none;stroke-opacity:1"
           id="path2924"
           sodipodi:type="arc"
           sodipodi:cx="351.81689"
           sodipodi:cy="108.49605"
           sodipodi:rx="12.50006"
           sodipodi:ry="12.5"
           sodipodi:start="3.1623207"
           sodipodi:end="3.1372147"
           sodipodi:open="true"
           sodipodi:arc-type="arc"
           d="m 339.31952,108.23697 a 12.50006,12.5 0 0 1 12.67801,-12.239617 12.50006,12.5 0 0 1 12.31901,12.600877 12.50006,12.5 0 0 1 -12.52338,12.3978 12.50006,12.5 0 0 1 -12.47621,-12.44526" />
      </g>
    </g>
    <rect
       style="fill:none;stroke:#1be7ff;stroke-width:0.0920369;stroke-dasharray:none;stroke-opacity:1"
       id="rect2938"
       width="19.907963"
       height="12.907963"
       x="92.857483"
       y="45.447208" />
    <path
       style="fill:none;stroke:#1be7ff;stroke-width:0.0398181;stroke-dasharray:none;stroke-opacity:1"
       id="path2992"
       sodipodi:type="arc"
       sodipodi:cx="216.21524"
       sodipodi:cy="95.677078"
       sodipodi:rx="1.4800977"
       sodipodi:ry="1.4800893"
       sodipodi:start="3.1623207"
       sodipodi:end="3.1372147"
       sodipodi:open="true"
       sodipodi:arc-type="arc"
       d="m 214.73546,95.646401 a 1.4800977,1.4800893 0 0 1 1.50117,-1.449258 1.4800977,1.4800893 0 0 1 1.45866,1.492035 1.4800977,1.4800893 0 0 1 -1.48286,1.467987 1.4800977,1.4800893 0 0 1 -1.47727,-1.473607" />
    <path
       style="fill:none;stroke:#1be7ff;stroke-width:0.0398181;stroke-dasharray:none;stroke-opacity:1"
       id="path2994"
       sodipodi:type="arc"
       sodipodi:cx="95.027908"
       sodipodi:cy="215.57417"
       sodipodi:rx="1.4800977"
       sodipodi:ry="1.4800893"
       sodipodi:start="3.1623207"
       sodipodi:end="3.1372147"
       sodipodi:open="true"
       sodipodi:arc-type="arc"
       d="m 93.548129,215.5435 a 1.4800977,1.4800893 0 0 1 1.501168,-1.44926 1.4800977,1.4800893 0 0 1 1.45866,1.49203 1.4800977,1.4800893 0 0 1 -1.482859,1.46799 1.4800977,1.4800893 0 0 1 -1.477273,-1.47361" />
    <path
       style="fill:none;stroke:#1be7ff;stroke-width:0.0398181;stroke-dasharray:none;stroke-opacity:1"
       id="path2996"
       sodipodi:type="arc"
       sodipodi:cx="172.49124"
       sodipodi:cy="51.513725"
       sodipodi:rx="1.4800977"
       sodipodi:ry="1.4800893"
       sodipodi:start="3.1623207"
       sodipodi:end="3.1372147"
       sodipodi:open="true"
       sodipodi:arc-type="arc"
       d="m 171.01146,51.483048 a 1.4800977,1.4800893 0 0 1 1.50117,-1.449257 1.4800977,1.4800893 0 0 1 1.45866,1.492034 1.4800977,1.4800893 0 0 1 -1.48286,1.467987 1.4800977,1.4800893 0 0 1 -1.47727,-1.473607" />
    <path
       style="fill:none;stroke:#1be7ff;stroke-width:0.0398181;stroke-dasharray:none;stroke-opacity:1"
       id="path2998"
       sodipodi:type="arc"
       sodipodi:cx="51.175243"
       sodipodi:cy="171.2346"
       sodipodi:rx="1.4800977"
       sodipodi:ry="1.4800893"
       sodipodi:start="3.1623207"
       sodipodi:end="3.1372147"
       sodipodi:open="true"
       sodipodi:arc-type="arc"
       d="m 49.695464,171.20393 a 1.4800977,1.4800893 0 0 1 1.501168,-1.44926 1.4800977,1.4800893 0 0 1 1.45866,1.49203 1.4800977,1.4800893 0 0 1 -1.482859,1.46799 1.4800977,1.4800893 0 0 1 -1.477273,-1.47361" />
    <g
       id="g3055"
       transform="translate(-3.0476489,-1.9394129)">
      <g
         id="g3018">
        <path
           style="fill:none;stroke:#1be7ff;stroke-width:0.0398181;stroke-dasharray:none;stroke-opacity:1"
           id="path3000"
           sodipodi:type="arc"
           sodipodi:cx="136.98465"
           sodipodi:cy="130.36574"
           sodipodi:rx="1.4800977"
           sodipodi:ry="1.4800893"
           sodipodi:start="3.1623207"
           sodipodi:end="3.1372147"
           sodipodi:open="true"
           sodipodi:arc-type="arc"
           d="m 135.50487,130.33506 a 1.4800977,1.4800893 0 0 1 1.50117,-1.44926 1.4800977,1.4800893 0 0 1 1.45866,1.49204 1.4800977,1.4800893 0 0 1 -1.48286,1.46798 1.4800977,1.4800893 0 0 1 -1.47727,-1.4736" />
        <path
           style="fill:none;stroke:#1be7ff;stroke-width:0.0398181;stroke-dasharray:none;stroke-opacity:1"
           id="path3002"
           sodipodi:type="arc"
           sodipodi:cx="141.66002"
           sodipodi:cy="130.33112"
           sodipodi:rx="1.4800977"
           sodipodi:ry="1.4800893"
           sodipodi:start="3.1623207"
           sodipodi:end="3.1372147"
           sodipodi:open="true"
           sodipodi:arc-type="arc"
           d="m 140.18024,130.30044 a 1.4800977,1.4800893 0 0 1 1.50117,-1.44926 1.4800977,1.4800893 0 0 1 1.45866,1.49204 1.4800977,1.4800893 0 0 1 -1.48286,1.46798 1.4800977,1.4800893 0 0 1 -1.47727,-1.4736" />
        <path
           style="fill:none;stroke:#1be7ff;stroke-width:0.0398181;stroke-dasharray:none;stroke-opacity:1"
           id="path3006"
           sodipodi:type="arc"
           sodipodi:cx="132.17075"
           sodipodi:cy="130.50427"
           sodipodi:rx="1.4800977"
           sodipodi:ry="1.4800893"
           sodipodi:start="3.1623207"
           sodipodi:end="3.1372147"
           sodipodi:open="true"
           sodipodi:arc-type="arc"
           d="m 130.69097,130.4736 a 1.4800977,1.4800893 0 0 1 1.50116,-1.44926 1.4800977,1.4800893 0 0 1 1.45866,1.49203 1.4800977,1.4800893 0 0 1 -1.48285,1.46799 1.4800977,1.4800893 0 0 1 -1.47728,-1.47361" />
        <path
           style="fill:none;stroke:#1be7ff;stroke-width:0.0398181;stroke-dasharray:none;stroke-opacity:1"
           id="path3008"
           sodipodi:type="arc"
           sodipodi:cx="132.17075"
           sodipodi:cy="130.50427"
           sodipodi:rx="1.4800977"
           sodipodi:ry="1.4800893"
           sodipodi:start="3.1623207"
           sodipodi:end="3.1372147"
           sodipodi:open="true"
           sodipodi:arc-type="arc"
           d="m 130.69097,130.4736 a 1.4800977,1.4800893 0 0 1 1.50116,-1.44926 1.4800977,1.4800893 0 0 1 1.45866,1.49203 1.4800977,1.4800893 0 0 1 -1.48285,1.46799 1.4800977,1.4800893 0 0 1 -1.47728,-1.47361" />
      </g>
      <g
         id="g3028"
         transform="translate(0,4.259782)">
        <path
           style="fill:none;stroke:#1be7ff;stroke-width:0.0398181;stroke-dasharray:none;stroke-opacity:1"
           id="path3020"
           sodipodi:type="arc"
           sodipodi:cx="136.98465"
           sodipodi:cy="130.36574"
           sodipodi:rx="1.4800977"
           sodipodi:ry="1.4800893"
           sodipodi:start="3.1623207"
           sodipodi:end="3.1372147"
           sodipodi:open="true"
           sodipodi:arc-type="arc"
           d="m 135.50487,130.33506 a 1.4800977,1.4800893 0 0 1 1.50117,-1.44926 1.4800977,1.4800893 0 0 1 1.45866,1.49204 1.4800977,1.4800893 0 0 1 -1.48286,1.46798 1.4800977,1.4800893 0 0 1 -1.47727,-1.4736" />
        <path
           style="fill:none;stroke:#1be7ff;stroke-width:0.0398181;stroke-dasharray:none;stroke-opacity:1"
           id="path3022"
           sodipodi:type="arc"
           sodipodi:cx="141.66002"
           sodipodi:cy="130.33112"
           sodipodi:rx="1.4800977"
           sodipodi:ry="1.4800893"
           sodipodi:start="3.1623207"
           sodipodi:end="3.1372147"
           sodipodi:open="true"
           sodipodi:arc-type="arc"
           d="m 140.18024,130.30044 a 1.4800977,1.4800893 0 0 1 1.50117,-1.44926 1.4800977,1.4800893 0 0 1 1.45866,1.49204 1.4800977,1.4800893 0 0 1 -1.48286,1.46798 1.4800977,1.4800893 0 0 1 -1.47727,-1.4736" />
        <path
           style="fill:none;stroke:#1be7ff;stroke-width:0.0398181;stroke-dasharray:none;stroke-opacity:1"
           id="path3024"
           sodipodi:type="arc"
           sodipodi:cx="132.17075"
           sodipodi:cy="130.50427"
           sodipodi:rx="1.4800977"
           sodipodi:ry="1.4800893"
           sodipodi:start="3.1623207"
           sodipodi:end="3.1372147"
           sodipodi:open="true"
           sodipodi:arc-type="arc"
           d="m 130.69097,130.4736 a 1.4800977,1.4800893 0 0 1 1.50116,-1.44926 1.4800977,1.4800893 0 0 1 1.45866,1.49203 1.4800977,1.4800893 0 0 1 -1.48285,1.46799 1.4800977,1.4800893 0 0 1 -1.47728,-1.47361" />
        <path
           style="fill:none;stroke:#1be7ff;stroke-width:0.0398181;stroke-dasharray:none;stroke-opacity:1"
           id="path3026"
           sodipodi:type="arc"
           sodipodi:cx="132.17075"
           sodipodi:cy="130.50427"
           sodipodi:rx="1.4800977"
           sodipodi:ry="1.4800893"
           sodipodi:start="3.1623207"
           sodipodi:end="3.1372147"
           sodipodi:open="true"
           sodipodi:arc-type="arc"
           d="m 130.69097,130.4736 a 1.4800977,1.4800893 0 0 1 1.50116,-1.44926 1.4800977,1.4800893 0 0 1 1.45866,1.49203 1.4800977,1.4800893 0 0 1 -1.48285,1.46799 1.4800977,1.4800893 0 0 1 -1.47728,-1.47361" />
      </g>
      <g
         id="g3038"
         transform="translate(0.03463237,8.5888287)">
        <path
           style="fill:none;stroke:#1be7ff;stroke-width:0.0398181;stroke-dasharray:none;stroke-opacity:1"
           id="path3030"
           sodipodi:type="arc"
           sodipodi:cx="136.98465"
           sodipodi:cy="130.36574"
           sodipodi:rx="1.4800977"
           sodipodi:ry="1.4800893"
           sodipodi:start="3.1623207"
           sodipodi:end="3.1372147"
           sodipodi:open="true"
           sodipodi:arc-type="arc"
           d="m 135.50487,130.33506 a 1.4800977,1.4800893 0 0 1 1.50117,-1.44926 1.4800977,1.4800893 0 0 1 1.45866,1.49204 1.4800977,1.4800893 0 0 1 -1.48286,1.46798 1.4800977,1.4800893 0 0 1 -1.47727,-1.4736" />
        <path
           style="fill:none;stroke:#1be7ff;stroke-width:0.0398181;stroke-dasharray:none;stroke-opacity:1"
           id="path3032"
           sodipodi:type="arc"
           sodipodi:cx="141.66002"
           sodipodi:cy="130.33112"
           sodipodi:rx="1.4800977"
           sodipodi:ry="1.4800893"
           sodipodi:start="3.1623207"
           sodipodi:end="3.1372147"
           sodipodi:open="true"
           sodipodi:arc-type="arc"
           d="m 140.18024,130.30044 a 1.4800977,1.4800893 0 0 1 1.50117,-1.44926 1.4800977,1.4800893 0 0 1 1.45866,1.49204 1.4800977,1.4800893 0 0 1 -1.48286,1.46798 1.4800977,1.4800893 0 0 1 -1.47727,-1.4736" />
        <path
           style="fill:none;stroke:#1be7ff;stroke-width:0.0398181;stroke-dasharray:none;stroke-opacity:1"
           id="path3034"
           sodipodi:type="arc"
           sodipodi:cx="132.17075"
           sodipodi:cy="130.50427"
           sodipodi:rx="1.4800977"
           sodipodi:ry="1.4800893"
           sodipodi:start="3.1623207"
           sodipodi:end="3.1372147"
           sodipodi:open="true"
           sodipodi:arc-type="arc"
           d="m 130.69097,130.4736 a 1.4800977,1.4800893 0 0 1 1.50116,-1.44926 1.4800977,1.4800893 0 0 1 1.45866,1.49203 1.4800977,1.4800893 0 0 1 -1.48285,1.46799 1.4800977,1.4800893 0 0 1 -1.47728,-1.47361" />
        <path
           style="fill:none;stroke:#1be7ff;stroke-width:0.0398181;stroke-dasharray:none;stroke-opacity:1"
           id="path3036"
           sodipodi:type="arc"
           sodipodi:cx="132.17075"
           sodipodi:cy="130.50427"
           sodipodi:rx="1.4800977"
           sodipodi:ry="1.4800893"
           sodipodi:start="3.1623207"
           sodipodi:end="3.1372147"
           sodipodi:open="true"
           sodipodi:arc-type="arc"
           d="m 130.69097,130.4736 a 1.4800977,1.4800893 0 0 1 1.50116,-1.44926 1.4800977,1.4800893 0 0 1 1.45866,1.49203 1.4800977,1.4800893 0 0 1 -1.48285,1.46799 1.4800977,1.4800893 0 0 1 -1.47728,-1.47361" />
      </g>
    </g>
    <g
       aria-label="Breki"
       id="text3111"
       style="font-size:24.6944px;font-family:'Times New Roman';-inkscape-font-specification:'Times New Roman, ';fill:#ffffff;fill-opacity:1;stroke:#280b0b;stroke-width:0.3;stroke-dasharray:none"
       transform="translate(-3.0476489,-1.3852949)">
      <path
         d="m 120.01381,30.167193 q 1.70015,0.361735 2.5442,1.15755 1.1696,1.109319 1.1696,2.713008 0,1.217839 -0.7717,2.339216 -0.7717,1.109319 -2.12217,1.627805 -1.33842,0.506428 -4.09966,0.506428 h -7.717 v -0.446139 h 0.61495 q 1.02491,0 1.47105,-0.651122 0.27733,-0.422023 0.27733,-1.796614 V 25.054681 q 0,-1.519285 -0.34967,-1.917192 -0.47026,-0.530544 -1.39871,-0.530544 h -0.61495 v -0.446139 h 7.06588 q 1.97748,0 3.17121,0.289387 1.80867,0.434081 2.76123,1.5434 0.95257,1.097261 0.95257,2.532141 0,1.229897 -0.74758,2.20658 -0.74759,0.964625 -2.20658,1.434879 z m -6.3183,-0.651121 q 0.44614,0.0844 1.01286,0.132635 0.57878,0.03617 1.26607,0.03617 1.76044,0 2.64066,-0.373792 0.89228,-0.38585 1.36253,-1.169608 0.47026,-0.783758 0.47026,-1.71221 0,-1.434879 -1.16961,-2.447736 -1.16961,-1.012856 -3.41236,-1.012856 -1.20578,0 -2.17041,0.265272 z m 0,7.813462 q 1.39871,0.325561 2.76124,0.325561 2.18247,0 3.32796,-0.976683 1.14549,-0.98874 1.14549,-2.435678 0,-0.952567 -0.51848,-1.832787 -0.51849,-0.880221 -1.6881,-1.386649 -1.16961,-0.506428 -2.89387,-0.506428 -0.74759,0 -1.27813,0.02412 -0.53055,0.02411 -0.85611,0.0844 z"
         id="path3163"
         style="fill:#ffffff;fill-opacity:1;stroke:#280b0b;stroke-width:0.3;stroke-dasharray:none" />
      <path
         d="m 129.08128,27.140682 v 2.48391 q 1.38665,-2.48391 2.84565,-2.48391 0.66318,0 1.09726,0.409966 0.43408,0.397908 0.43408,0.928452 0,0.470254 -0.3135,0.795815 -0.31351,0.325561 -0.74759,0.325561 -0.42202,0 -0.95257,-0.409965 -0.51848,-0.422024 -0.7717,-0.422024 -0.21704,0 -0.47025,0.241156 -0.5426,0.494371 -1.12138,1.627805 v 5.29338 q 0,0.916394 0.2291,1.386648 0.15675,0.325561 0.55466,0.542602 0.39791,0.217041 1.14549,0.217041 V 38.5112 h -5.65511 v -0.434081 q 0.84405,0 1.25401,-0.265272 0.30145,-0.192925 0.42202,-0.614949 0.0603,-0.204982 0.0603,-1.169608 v -4.280523 q 0,-1.92925 -0.0844,-2.290985 -0.0724,-0.373792 -0.28939,-0.542601 -0.20498,-0.168809 -0.51848,-0.168809 -0.3738,0 -0.84405,0.180867 l -0.12058,-0.434082 3.34001,-1.350475 z"
         id="path3165"
         style="fill:#ffffff;fill-opacity:1;stroke:#280b0b;stroke-width:0.3;stroke-dasharray:none" />
      <path
         d="m 135.93012,31.626189 q -0.0121,2.459794 1.19372,3.8585 1.20579,1.398706 2.83359,1.398706 1.0852,0 1.88102,-0.590833 0.80787,-0.60289 1.35047,-2.049828 l 0.3738,0.241156 q -0.25322,1.651921 -1.47106,3.014454 -1.21784,1.350475 -3.05062,1.350475 -1.98954,0 -3.41236,-1.5434 -1.41077,-1.555458 -1.41077,-4.172004 0,-2.833586 1.44694,-4.413159 1.45899,-1.591631 3.65352,-1.591631 1.8569,0 3.05062,1.229897 1.19373,1.217839 1.19373,3.267667 z m 0,-0.699353 h 5.11251 q -0.0603,-1.061088 -0.25321,-1.495169 -0.30145,-0.675238 -0.90434,-1.061088 -0.59083,-0.38585 -1.24195,-0.38585 -1.0008,0 -1.79662,0.783758 -0.78375,0.7717 -0.91639,2.158349 z"
         id="path3167"
         style="fill:#ffffff;fill-opacity:1;stroke:#280b0b;stroke-width:0.3;stroke-dasharray:none" />
      <path
         d="m 148.30144,21.36499 v 10.984668 l 2.80947,-2.556257 q 0.89228,-0.819931 1.03697,-1.036972 0.0965,-0.144693 0.0965,-0.289387 0,-0.241156 -0.20498,-0.409966 -0.19293,-0.180867 -0.65112,-0.204983 v -0.38585 h 4.79901 v 0.38585 q -0.98874,0.02412 -1.65192,0.301446 -0.65113,0.277329 -1.43488,0.98874 l -2.83359,2.616546 2.83359,3.58117 q 1.18166,1.483111 1.59163,1.881019 0.57877,0.566717 1.01285,0.735527 0.30145,0.120578 1.04903,0.120578 V 38.5112 h -5.36572 v -0.434081 q 0.45819,-0.01206 0.61495,-0.132636 0.1688,-0.132636 0.1688,-0.361735 0,-0.277329 -0.48231,-0.892278 l -3.38824,-4.328755 v 3.665575 q 0,1.073146 0.14469,1.410765 0.15675,0.337618 0.43408,0.482312 0.27733,0.144694 1.20578,0.156752 V 38.5112 h -5.61894 v -0.434081 q 0.84405,0 1.26607,-0.204983 0.25322,-0.132636 0.38585,-0.409966 0.18087,-0.397908 0.18087,-1.37459 V 26.031364 q 0,-1.917193 -0.0844,-2.339216 -0.0844,-0.434081 -0.27733,-0.590833 -0.19293,-0.168809 -0.50643,-0.168809 -0.25322,0 -0.75964,0.204983 l -0.20499,-0.422024 3.27973,-1.350475 z"
         id="path3169"
         style="fill:#ffffff;fill-opacity:1;stroke:#280b0b;stroke-width:0.3;stroke-dasharray:none" />
      <path
         d="m 160.19044,21.36499 q 0.50643,0 0.8561,0.361734 0.36174,0.349677 0.36174,0.856105 0,0.506428 -0.36174,0.868163 -0.34967,0.361734 -0.8561,0.361734 -0.50643,0 -0.86816,-0.361734 -0.36174,-0.361735 -0.36174,-0.868163 0,-0.506428 0.34968,-0.856105 0.36173,-0.361734 0.88022,-0.361734 z m 1.0008,5.775692 v 8.874551 q 0,1.036972 0.14469,1.386648 0.15675,0.337619 0.44614,0.506428 0.30145,0.16881 1.0852,0.16881 V 38.5112 h -5.36572 v -0.434081 q 0.80787,0 1.0852,-0.156752 0.27733,-0.156751 0.43408,-0.518486 0.16881,-0.361734 0.16881,-1.386648 v -4.256408 q 0,-1.796614 -0.10852,-2.327158 -0.0844,-0.38585 -0.26527,-0.530544 -0.18087,-0.156751 -0.49437,-0.156751 -0.33762,0 -0.81993,0.180867 l -0.16881,-0.434082 3.32795,-1.350475 z"
         id="path3171"
         style="fill:#ffffff;fill-opacity:1;stroke:#280b0b;stroke-width:0.3;stroke-dasharray:none" />
    </g>
  </g>
</svg>
